<?xml version="1.0" encoding="utf-8"?>
<!-- Generator: Adobe Illustrator 21.0.2, SVG Export Plug-In . SVG Version: 6.00 Build 0)  -->
<!DOCTYPE svg PUBLIC "-//W3C//DTD SVG 1.1//EN" "http://www.w3.org/Graphics/SVG/1.1/DTD/svg11.dtd">
<svg version="1.1" id="Layer_1" xmlns="http://www.w3.org/2000/svg" xmlns:xlink="http://www.w3.org/1999/xlink" x="0px" y="0px"
	 width="184px" height="32px" viewBox="0 0 184 32" style="enable-background:new 0 0 184 32;" xml:space="preserve">
<style type="text/css">
	.st0{fill:#FFFFFF;}
</style>
<g>
	<polygon class="st0" points="19.7,26.1 9,18.8 22.4,18.8 22.4,5.7 22.4,5.7 22.4,1.6 0.3,1.6 0.3,6.5 17.5,6.5 17.5,13.9 0.3,13.9 
		0.3,18.8 0.3,18.8 0.3,18.8 17.9,31 17.9,31 17.9,31 44.5,31 44.5,26.1 	"/>
	<path class="st0" d="M49.4,1.6V31h29.4V1.6H49.4z M54.3,26.1V6.5h19.6v7.4H59.2v4.9h14.7v7.4H54.3z"/>
	<polygon class="st0" points="108.3,1.6 83.7,1.6 83.7,6.5 93.5,6.5 93.5,31 98.4,31 98.4,6.5 108.3,6.5 	"/>
	<rect x="103.4" y="26.1" class="st0" width="4.9" height="4.9"/>
	<rect x="27.3" y="13.9" class="st0" width="17.2" height="4.9"/>
	<rect x="27.3" y="1.6" class="st0" width="17.2" height="4.9"/>
	<rect x="0.3" y="26.1" class="st0" width="4.9" height="4.9"/>
	<rect x="39.6" y="1.6" class="st0" width="4.9" height="4.9"/>
	<rect x="39.6" y="13.9" class="st0" width="4.9" height="4.9"/>
	<rect x="59.2" y="13.9" class="st0" width="4.9" height="4.9"/>
	<rect x="83.7" y="18.8" class="st0" width="4.9" height="12.2"/>
	<rect x="83.7" y="13.9" class="st0" width="4.9" height="4.9"/>
	<rect x="39.6" y="26.1" class="st0" width="4.9" height="4.9"/>
	<g>
		<rect x="116.5" y="1.1" class="st0" width="0.5" height="0.6"/>
		<g>
			<path class="st0" d="M130.7,5.5c-0.5,0-0.6-0.2-0.6-0.5V3.6c0-0.3,0.1-0.5,0.6-0.5c0.5,0,0.6,0.2,0.6,0.5v1.4
				C131.3,5.3,131.2,5.5,130.7,5.5 M132.2,5.9c0,0,0.1,0,0.1,0c0.7,0,0.9-0.3,0.9-0.9V3.6c0-0.5-0.3-0.9-1-0.9
				c-0.3,0-0.5,0.1-0.6,0.2V2h2.1V1.6h-4.6V2h2.1v0.9c-0.1-0.1-0.3-0.2-0.6-0.2c-0.7,0-1,0.3-1,0.9V5c0,0.6,0.3,0.9,1,0.9
				c0.3,0,0.5-0.1,0.6-0.2v0.7h0.4V3.6c0-0.3,0.1-0.5,0.6-0.5c0.5,0,0.6,0.2,0.6,0.5V5c0,0.3-0.1,0.5-0.6,0.5V5.9z"/>
			<path class="st0" d="M129,0.9c0,0.2,0.1,0.3,0.3,0.3c0.2,0,0.3-0.1,0.3-0.3c0-0.2-0.1-0.3-0.3-0.3C129,0.6,129,0.7,129,0.9z"/>
			<polygon class="st0" points="128.8,1.6 128.3,-0.1 127.9,-0.1 128.4,1.6 			"/>
			<polygon class="st0" points="128.3,1.6 127.2,-0.1 126.7,-0.1 127.9,1.6 			"/>
			<path class="st0" d="M127.7,3.1c0.5,0,0.7,0.2,0.7,0.5v0.9l-1.3-1C127.1,3.3,127.2,3.1,127.7,3.1 M127.7,5.5
				c-0.5,0-0.7-0.2-0.7-0.5V4l1.3,1C128.4,5.3,128.2,5.5,127.7,5.5 M128.4,6.4h0.4V2h0.7V1.6h-3.4V2h2.3v0.9
				c-0.1-0.1-0.4-0.2-0.7-0.2c-0.7,0-1.1,0.3-1.1,0.9V5c0,0.6,0.4,0.9,1.1,0.9c0.3,0,0.5-0.1,0.7-0.2V6.4z"/>
			<path class="st0" d="M124,1c0-0.5,0.3-0.6,0.7-0.6h0.1V0h-0.1c-0.6,0-1.1,0.2-1.1,0.9c0,0.5,0.3,0.7,0.3,0.7h0.4
				C124.2,1.6,124,1.4,124,1"/>
			<path class="st0" d="M123.8,5c0,0.3-0.2,0.5-0.7,0.5c-0.5,0-0.7-0.2-0.7-0.5V3.6c0-0.3,0.2-0.5,0.7-0.5c0.5,0,0.7,0.2,0.7,0.5V5z
				 M124.3,2h0.7V1.6h-3.5V2h2.3v0.9c-0.1-0.1-0.4-0.2-0.7-0.2c-0.7,0-1.1,0.3-1.1,0.9V5c0,0.6,0.3,0.9,1.1,0.9
				c0.3,0,0.6-0.1,0.7-0.2v0.8h0.5V2z"/>
			<path class="st0" d="M119.7,6.4c0,0.2,0.1,0.3,0.3,0.3c0.2,0,0.3-0.1,0.3-0.3c0-0.2-0.1-0.3-0.3-0.3
				C119.8,6.1,119.7,6.3,119.7,6.4"/>
			<path class="st0" d="M118.1,5.2V4.5h-0.5v0.7c0,0.6,0.3,0.9,1,0.9c0.7,0,1-0.3,1-0.9V3.9c0-0.3-0.1-0.5-0.2-0.6h1.2v3.2h0.5V2
				h0.7V1.6h-4.6V2h3.4v0.9h-2.4v0.4h0.3c0.5,0,0.6,0.3,0.6,0.6v1.3c0,0.3-0.1,0.5-0.6,0.5C118.1,5.7,118.1,5.5,118.1,5.2L118.1,5.2
				z"/>
			<path class="st0" d="M115.3,5.5V4.2c0.1,0.1,0.4,0.2,0.7,0.2c0.7,0,1.1-0.4,1.1-0.9V2.6c0-0.3-0.1-0.4-0.2-0.5h0.9V1.6h-3.4V2
				h1.7c0.5,0,0.6,0.2,0.6,0.5v0.9c0,0.3-0.1,0.5-0.6,0.5c-0.5,0-0.6-0.2-0.6-0.5V3h-0.5v2.6c0,0.6,0.3,1,1.1,1c0.7,0,1.1-0.4,1.1-1
				V5.1h-0.4v0.4c0,0.3-0.1,0.6-0.6,0.6C115.4,6.1,115.3,5.8,115.3,5.5z"/>
			<path class="st0" d="M113.4,1.6h-0.7V2h0.7v4.4h0.4V2h0.7V1.6h-0.7V1.3c0-0.7,0.3-1,1.2-1h0.2c0.8,0,1.2,0.2,1.2,0.8h0.5v0
				c0-0.9-0.7-1.2-1.6-1.2H115c-1,0-1.7,0.3-1.7,1.4V1.6z"/>
		</g>
	</g>
	<g>
		<path class="st0" d="M181.9,9.7v0.7h-0.6c-0.7,0-1.1,0.3-1.1,0.9v0.2c0,0.6,0.4,0.9,1.1,0.9h0.1c0.5,0,0.6,0.2,0.6,0.5v0.4
			c0,0.3-0.2,0.5-0.7,0.5c-0.5,0-0.7-0.2-0.7-0.5v-0.3h-0.5v0.3c0,0.6,0.4,0.9,1.2,0.9c0.7,0,1.1-0.3,1.1-0.9v-0.4
			c0-0.6-0.3-0.9-1.1-0.9h-0.1c-0.5,0-0.6-0.2-0.6-0.5v-0.2c0-0.3,0.1-0.5,0.6-0.5h1V9.7h0.8V9.3h-3.4v0.4H181.9z"/>
		<polygon class="st0" points="179,9.3 179.4,9.3 178.3,7.6 177.7,7.6 		"/>
		<path class="st0" d="M178.5,10.8h0.9V9.7h0.7V9.3h-3.2v0.4h2.1v0.7h-0.5c-0.7,0-1.1,0.3-1.1,0.9v1.9c0,0.6,0.3,1,1.1,1
			c0.7,0,1.1-0.4,1.1-1v-0.7h-0.4v0.7c0,0.3-0.1,0.5-0.6,0.5c-0.5,0-0.6-0.2-0.6-0.5v-1.9C177.9,11,178,10.8,178.5,10.8"/>
		<path class="st0" d="M176,14.1h0.5V9.7h0.7V9.3h-4.6v0.4h2v1.2h-0.6c-0.7,0-1,0.3-1,0.9v1c0,0.6,0.3,0.9,1,0.9c0.7,0,1-0.3,1-0.9
			v-1.4h1V14.1z M175.1,9.7h1v1.2h-1V9.7z M174.6,12.8c0,0.3-0.1,0.5-0.6,0.5c-0.5,0-0.6-0.2-0.6-0.5v-1c0-0.3,0.1-0.5,0.6-0.5h0.6
			V12.8z"/>
		<path class="st0" d="M171.8,9.3h-0.7v0.4h0.7v4.4h0.5V9.7h0.7V9.3h-0.7V9c0-0.7,0.3-1,1.2-1h1.3c0.8,0,1.2,0.2,1.2,0.8h0.4v0
			c0-0.9-0.7-1.2-1.6-1.2h-1.4c-1,0-1.7,0.3-1.7,1.4V9.3z"/>
		<path class="st0" d="M167.1,13c0,0.7,0.3,1.1,1.2,1.1h0.5v-0.4h-0.4c-0.6,0-0.8-0.3-0.8-0.7v-1.5c0-0.3,0.1-0.5,0.6-0.5
			c0.5,0,0.6,0.2,0.6,0.5v1.1h0.5v-1.1c0-0.3,0.1-0.5,0.6-0.5c0.5,0,0.6,0.2,0.6,0.5v2.6h0.5V9.7h0.7V9.3h-4.9v0.4h3.8v1.1
			c-0.1-0.1-0.3-0.2-0.6-0.2c-0.4,0-0.6,0.1-0.8,0.3c-0.1-0.2-0.4-0.3-0.8-0.3c-0.7,0-1,0.4-1,1V13z"/>
		<path class="st0" d="M165.7,9.3H165v0.4h0.7v4.4h0.4V9.7h0.7V9.3h-0.7V9c0-0.7,0.3-1,1.2-1h1.7c0.8,0,1.2,0.2,1.2,0.8h0.5v0
			c0-0.9-0.7-1.2-1.6-1.2h-1.7c-1,0-1.7,0.3-1.7,1.4V9.3z"/>
		<path class="st0" d="M162.4,10.8h0.9V9.7h0.7V9.3h-3.2v0.4h2.1v0.7h-0.5c-0.7,0-1.1,0.3-1.1,0.9v1.9c0,0.6,0.3,1,1.1,1
			c0.7,0,1.1-0.4,1.1-1v-0.7H163v0.7c0,0.3-0.1,0.5-0.6,0.5c-0.5,0-0.6-0.2-0.6-0.5v-1.9C161.7,11,161.8,10.8,162.4,10.8"/>
		<polygon class="st0" points="159.8,9.3 160.3,9.3 159.1,7.6 158.6,7.6 		"/>
		<path class="st0" d="M159.9,12.7c0,0.3-0.2,0.5-0.7,0.5c-0.5,0-0.7-0.2-0.7-0.5v-1.4c0-0.3,0.2-0.5,0.7-0.5c0.5,0,0.7,0.2,0.7,0.5
			V12.7z M160.3,9.7h0.7V9.3h-3.5v0.4h2.3v0.9c-0.1-0.1-0.4-0.2-0.7-0.2c-0.7,0-1.1,0.3-1.1,0.9v1.4c0,0.6,0.3,0.9,1.1,0.9
			c0.3,0,0.6-0.1,0.7-0.2v0.8h0.5V9.7z"/>
		<path class="st0" d="M155.1,12.7v1.7h0.4v-0.8c0.1,0.2,0.4,0.2,0.7,0.2c0.8,0,1.1-0.3,1.1-0.9v-0.3c0-0.6-0.3-0.9-1.1-0.9h-0.2
			c-0.5,0-0.6-0.2-0.6-0.5v0c0-0.3,0.1-0.5,0.6-0.5h1V9.7h0.7V9.3h-3.3v0.4h2.1v0.7h-0.6c-0.7,0-1.1,0.3-1.1,0.9v0
			c0,0.6,0.4,0.9,1.1,0.9h0.2c0.5,0,0.6,0.2,0.6,0.5V13c0,0.3-0.2,0.5-0.7,0.5c-0.5,0-0.7-0.2-0.7-0.5v-0.3H155.1z"/>
		<polygon class="st0" points="153.8,9.7 153.8,14.1 154.2,14.1 154.2,9.7 154.9,9.7 154.9,9.3 153,9.3 153,9.7 		"/>
		<path class="st0" d="M152.2,9.7v2.1c0,0.3-0.1,0.5-0.6,0.5c-0.5,0-0.7-0.2-0.7-0.5V9.7H152.2z M150.5,9.7v2.1c0,0.6,0.3,0.9,1,0.9
			l-1.2,1.4h0.6l1.4-1.6v1.6h0.5V9.7h0.7V9.3h-3.5v0.4H150.5z"/>
		<path class="st0" d="M148.1,9c0-1.1-0.6-1.4-1.6-1.4h-0.2c-0.9,0-1.5,0.3-1.6,1.2v0h0.5c0-0.6,0.3-0.8,1.1-0.8h0.1
			c0.9,0,1.2,0.3,1.2,1v0.3h-0.7v0.4h0.7v4.4h0.5V9.7h0.7V9.3h-0.7V9z"/>
		<path class="st0" d="M144.1,13.2c-0.5,0-0.6-0.2-0.6-0.5v-1.4c0-0.3,0.1-0.5,0.6-0.5c0.5,0,0.6,0.2,0.6,0.5v1.4
			C144.7,13,144.6,13.2,144.1,13.2 M145.6,13.5c0,0,0.1,0,0.1,0c0.7,0,0.9-0.3,0.9-0.9v-1.3c0-0.5-0.3-0.9-1-0.9
			c-0.3,0-0.5,0.1-0.6,0.2V9.7h2.1V9.3h-4.6v0.4h2.1v0.9c-0.1-0.1-0.3-0.2-0.6-0.2c-0.7,0-1,0.3-1,0.9v1.4c0,0.6,0.3,0.9,1,0.9
			c0.3,0,0.5-0.1,0.6-0.2v0.7h0.5v-2.8c0-0.3,0.1-0.5,0.6-0.5c0.5,0,0.6,0.2,0.6,0.5v1.3c0,0.3-0.1,0.5-0.6,0.5V13.5z"/>
		<path class="st0" d="M142.9,9.3h-3.9v0.4h1.1v2c0,0.3-0.1,0.5-0.5,0.5c-0.1,0-0.2,0-0.3,0v0.4c0,0,0.1,0,0.3,0
			c0.7,0,0.9-0.3,0.9-0.9V9.7h1.1v4.4h0.5V9.7h0.7V9.3z"/>
		<path class="st0" d="M138.2,9.3h-0.7v0.4h0.7v4.4h0.5V9.7h0.7V9.3h-0.7V9c0-0.7,0.3-1,1.2-1h0.7c0.8,0,1.2,0.2,1.2,0.8h0.5v0
			c0-0.9-0.7-1.2-1.6-1.2h-0.7c-1,0-1.7,0.3-1.7,1.4V9.3z"/>
		<polygon class="st0" points="137.9,9.3 137.1,9.3 135.9,7.6 135.4,7.6 136.7,9.3 136,9.3 136,9.7 136.7,9.7 136.7,14.1 
			137.1,14.1 137.1,9.7 137.9,9.7 		"/>
		<path class="st0" d="M135.1,9.7v3c0,0.5-0.3,0.7-0.9,0.7c-0.6,0-0.8-0.1-0.8-0.6v-0.1c0-0.3,0.1-0.5,0.6-0.5h0.2v-0.4h-0.2
			c-0.5,0-0.6-0.2-0.6-0.5V11c0-0.4,0.2-0.4,0.6-0.4h0.2V9.7H135.1z M136.3,9.3h-3.9v0.4h1.4v0.6c-0.4,0-0.8,0.2-0.8,0.7v0.2
			c0,0.3,0.1,0.6,0.4,0.7c-0.3,0.1-0.4,0.4-0.4,0.7v0.1c0,0.7,0.5,1,1.2,1c0.5,0,0.8-0.1,0.9-0.3v0.7h0.4V9.7h0.7V9.3z"/>
		<polygon class="st0" points="131.6,9.7 131.6,14.1 132,14.1 132,9.7 132.8,9.7 132.8,9.3 132,9.3 131.5,7.6 131.1,7.6 131.6,9.3 
			131.5,9.3 130.4,7.6 129.9,7.6 131.1,9.3 130.6,9.3 130.6,9.7 		"/>
		<path class="st0" d="M130,9.7v2.1c0,0.3-0.1,0.5-0.6,0.5c-0.5,0-0.7-0.2-0.7-0.5V9.7H130z M128.3,9.7v2.1c0,0.6,0.3,0.9,1,0.9
			l-1.2,1.4h0.6l1.4-1.6v1.6h0.4V9.7h0.7V9.3h-3.5v0.4H128.3z"/>
		<polygon class="st0" points="125.5,9.7 125.5,14.1 125.9,14.1 125.9,9.7 126.6,9.7 126.6,9.3 124.7,9.3 124.7,9.7 		"/>
		<path class="st0" d="M122.5,11.4v1.3c0,0.3-0.1,0.5-0.5,0.5c-0.4,0-0.5-0.2-0.5-0.5v-1.3c0-0.3,0.1-0.5,0.5-0.5
			C122.4,11,122.5,11.1,122.5,11.4 M123,12.8v-1.3c0-0.2,0-0.4-0.1-0.5h1.1v3.1h0.5V9.7h0.7V9.3h-4.6v0.4h3.4v0.9H122
			c-0.6,0-1,0.3-1,0.9v1.3c0,0.6,0.3,0.9,1,0.9C122.6,13.6,123,13.3,123,12.8"/>
		<path class="st0" d="M118.3,11.5c0-0.3,0.1-0.6,0.6-0.6h0.4v-0.4h-1.9v0.4h0.7c-0.1,0.1-0.2,0.3-0.2,0.6v1.2c0,0.6,0.3,1,1.1,1
			c0.3,0,0.6-0.1,0.7-0.2v0.7h0.4V9.7h0.7V9.3h-3.8v0.4h2.6v3.1c0,0.3-0.2,0.5-0.7,0.5c-0.5,0-0.6-0.2-0.6-0.6V11.5z"/>
		<path class="st0" d="M117,15.3h-0.7c-0.4,0-0.4-0.2-0.4-0.4c0-0.3,0-0.4,0.5-0.4h0.2c0.4,0,0.5,0.1,0.8,0.4l0.7,0.8h0.6l-0.9-1.2
			c-0.3-0.3-0.5-0.5-1-0.5h-0.2c-0.6,0-0.9,0.3-0.9,0.8c0,0.6,0.2,0.8,0.9,0.8h0.7V15.3z"/>
		<path class="st0" d="M115.3,10.2c0-0.3-0.1-0.4-0.2-0.6h1.2v1.8h-1c0-0.1,0.1-0.2,0.1-0.3V10.2z M112.6,9.7h1.6
			c0.5,0,0.6,0.2,0.6,0.5v0.9c0,0.3-0.1,0.5-0.6,0.5c-0.5,0-0.6-0.2-0.6-0.5v-0.5h-0.4v2.5c0,0.6,0.3,1,1.1,1c0.7,0,1-0.4,1-1v-0.3
			h-0.5v0.3c0,0.3-0.1,0.5-0.6,0.5c-0.5,0-0.6-0.2-0.6-0.5v-1.3c0.1,0.2,0.4,0.2,0.6,0.2c0.3,0,0.5-0.1,0.7-0.2h1.2v2.2h0.4V9.7h0.7
			V9.3h-4.8V9.7z"/>
		<rect x="141.7" y="8.8" class="st0" width="0.5" height="0.6"/>
		<rect x="144.7" y="8.8" class="st0" width="0.5" height="0.6"/>
		<rect x="176" y="8.8" class="st0" width="0.4" height="0.6"/>
		<rect x="170.3" y="8.8" class="st0" width="0.5" height="0.6"/>
	</g>
	<g>
		<path class="st0" d="M114.9,24l-0.6-1.7h0h-0.5V24h-0.6v-4.3h1.1c0.8,0,1.1,0.4,1.1,1v0.6c0,0.4-0.2,0.7-0.5,0.9l0.7,1.8H114.9z
			 M113.8,21.8h0.5c0.4,0,0.6-0.2,0.6-0.5v-0.6c0-0.3-0.2-0.5-0.6-0.5h-0.5V21.8z"/>
		<path class="st0" d="M116.6,22.4v0.7c0,0.3,0.2,0.5,0.5,0.5c0.4,0,0.5-0.2,0.5-0.5v-0.2h0.6v0.2c0,0.6-0.4,1-1.1,1s-1.1-0.4-1.1-1
			v-1.7c0-0.6,0.4-1,1.1-1s1.1,0.4,1.1,1v1h0v0H116.6z M117.7,21.3c0-0.3-0.2-0.5-0.5-0.5s-0.5,0.2-0.5,0.5v0.6h1V21.3z"/>
		<path class="st0" d="M120.3,22.1c0.4,0.2,0.6,0.4,0.6,0.8v0.1c0,0.6-0.4,1-1.1,1c-0.7,0-1.1-0.4-1.1-1v-0.2h0.6v0.2
			c0,0.3,0.1,0.5,0.5,0.5c0.4,0,0.5-0.1,0.5-0.5V23c0-0.2-0.1-0.3-0.3-0.4l-0.6-0.3c-0.4-0.2-0.6-0.4-0.6-0.8v-0.1c0-0.6,0.3-1,1-1
			s1,0.4,1,1v0.2h-0.6v-0.2c0-0.3-0.1-0.5-0.5-0.5c-0.4,0-0.5,0.2-0.5,0.5v0.1c0,0.2,0.1,0.4,0.3,0.5L120.3,22.1z"/>
		<path class="st0" d="M122,22.4v0.7c0,0.3,0.2,0.5,0.5,0.5c0.4,0,0.5-0.2,0.5-0.5v-0.2h0.6v0.2c0,0.6-0.4,1-1.1,1
			c-0.7,0-1.1-0.4-1.1-1v-1.7c0-0.6,0.4-1,1.1-1c0.7,0,1.1,0.4,1.1,1v1h0v0H122z M123,21.3c0-0.3-0.2-0.5-0.5-0.5
			c-0.4,0-0.5,0.2-0.5,0.5v0.6h1V21.3z"/>
		<path class="st0" d="M125.6,21c-0.1,0-0.2,0-0.3,0c-0.3,0-0.5,0.2-0.5,0.6V24h-0.6v-3.6h0.6v0.5c0-0.2,0.2-0.5,0.7-0.5
			c0,0,0.1,0,0.1,0V21z"/>
		<path class="st0" d="M126.6,22c0.2,0.9,0.3,1.5,0.3,1.5s0.1-0.6,0.3-1.5l0.3-1.6h0.6l-0.8,3.6h-0.8l-0.8-3.6h0.6L126.6,22z"/>
		<path class="st0" d="M129,22.4v0.7c0,0.3,0.2,0.5,0.5,0.5c0.4,0,0.5-0.2,0.5-0.5v-0.2h0.6v0.2c0,0.6-0.4,1-1.1,1
			c-0.7,0-1.1-0.4-1.1-1v-1.7c0-0.6,0.4-1,1.1-1c0.7,0,1.1,0.4,1.1,1v1h0v0H129z M130,21.3c0-0.3-0.2-0.5-0.5-0.5
			c-0.4,0-0.5,0.2-0.5,0.5v0.6h1V21.3z"/>
		<path class="st0" d="M134.6,21.1c0,0.4-0.1,0.7-0.5,0.8c0.4,0.1,0.5,0.4,0.5,0.8V23c0,0.6-0.3,1-1.1,1h-1.2v-4.3h1.1
			c0.8,0,1.1,0.4,1.1,1V21.1z M132.9,20.2v1.4h0.5c0.4,0,0.6-0.2,0.6-0.5v-0.3c0-0.3-0.1-0.5-0.5-0.5H132.9z M134,22.6
			c0-0.3-0.2-0.5-0.6-0.5h-0.6v1.4h0.6c0.4,0,0.5-0.2,0.5-0.5V22.6z"/>
		<path class="st0" d="M135.2,21.3c0-0.6,0.4-1,1.1-1c0.7,0,1.1,0.4,1.1,1V24h-0.6v-0.4c-0.1,0.2-0.3,0.4-0.7,0.4
			c-0.6,0-0.9-0.3-0.9-0.9V23c0-0.4,0.2-0.7,0.7-0.9l0.9-0.3v-0.5c0-0.3-0.1-0.5-0.5-0.5s-0.5,0.2-0.5,0.5v0.2h-0.6V21.3z
			 M135.8,23.1c0,0.3,0.1,0.4,0.5,0.4c0.4,0,0.6-0.2,0.6-0.5v-0.8l-0.6,0.2c-0.3,0.1-0.4,0.2-0.4,0.5V23.1z"/>
		<path class="st0" d="M138.1,24v-3.6h0.6v0.4c0.1-0.1,0.3-0.4,0.7-0.4c0.5,0,0.8,0.3,0.8,0.9V24h-0.6v-2.7c0-0.3-0.2-0.5-0.5-0.5
			c-0.3,0-0.5,0.2-0.5,0.5V24H138.1z"/>
		<path class="st0" d="M141,19.4h0.6V24H141V19.4z M143,20.4l-0.8,1.7l0.8,1.9h-0.6l-0.8-1.9l0.8-1.7H143z"/>
		<path class="st0" d="M113.2,31v-4.3h0.6V31H113.2z"/>
		<path class="st0" d="M114.6,31v-3.6h0.6v0.4c0.1-0.1,0.3-0.4,0.7-0.4c0.5,0,0.8,0.3,0.8,0.9V31h-0.6v-2.7c0-0.3-0.2-0.5-0.5-0.5
			c-0.3,0-0.5,0.2-0.5,0.5V31H114.6z"/>
		<path class="st0" d="M117.2,27.3h0.4v-0.2c0-0.6,0.3-0.9,0.9-0.9c0.1,0,0.2,0,0.3,0v0.5c-0.1,0-0.2,0-0.2,0
			c-0.3,0-0.4,0.1-0.4,0.4v0.2h0.6v0.5h-0.6V31h-0.6v-3.1h-0.4V27.3z"/>
		<path class="st0" d="M121.2,30c0,0.6-0.4,1-1.1,1c-0.7,0-1.1-0.4-1.1-1v-1.7c0-0.6,0.4-1,1.1-1c0.7,0,1.1,0.4,1.1,1V30z
			 M120.6,28.3c0-0.3-0.2-0.5-0.5-0.5c-0.4,0-0.5,0.2-0.5,0.5V30c0,0.3,0.2,0.5,0.5,0.5c0.4,0,0.5-0.2,0.5-0.5V28.3z"/>
		<path class="st0" d="M123.3,27.9c-0.1,0-0.2,0-0.3,0c-0.3,0-0.5,0.2-0.5,0.6V31h-0.6v-3.6h0.6v0.5c0-0.2,0.2-0.5,0.7-0.5
			c0,0,0.1,0,0.1,0V27.9z"/>
		<path class="st0" d="M123.6,31v-3.6h0.6v0.4c0.1-0.1,0.3-0.4,0.7-0.4c0.4,0,0.6,0.2,0.8,0.5c0.1-0.2,0.3-0.5,0.8-0.5
			c0.5,0,0.8,0.3,0.8,0.9V31h-0.6v-2.7c0-0.3-0.2-0.5-0.5-0.5c-0.3,0-0.5,0.2-0.5,0.5V31h-0.6v-2.7c0-0.3-0.2-0.5-0.5-0.5
			c-0.3,0-0.5,0.2-0.5,0.5V31H123.6z"/>
		<path class="st0" d="M127.9,28.3c0-0.6,0.4-1,1.1-1s1.1,0.4,1.1,1V31h-0.6v-0.4c-0.1,0.2-0.3,0.4-0.7,0.4c-0.6,0-0.9-0.3-0.9-0.9
			v-0.2c0-0.4,0.2-0.7,0.7-0.9l0.9-0.3v-0.5c0-0.3-0.1-0.5-0.5-0.5c-0.4,0-0.5,0.2-0.5,0.5v0.2h-0.6V28.3z M128.4,30.1
			c0,0.3,0.1,0.4,0.5,0.4c0.4,0,0.6-0.2,0.6-0.5v-0.8l-0.6,0.2c-0.3,0.1-0.4,0.2-0.4,0.5V30.1z"/>
		<path class="st0" d="M130.5,27.3h0.4l0.1-0.7h0.4v0.7h0.7v0.5h-0.7v2.2c0,0.3,0.1,0.4,0.4,0.4c0.2,0,0.3-0.1,0.4-0.1v0.5
			c0,0-0.2,0.1-0.5,0.1c-0.6,0-0.9-0.4-0.9-0.9v-2.2h-0.4V27.3z"/>
		<path class="st0" d="M133.2,26.6c0,0.2-0.1,0.3-0.3,0.3c-0.3,0-0.3-0.1-0.3-0.3c0-0.2,0.1-0.3,0.3-0.3
			C133.1,26.3,133.2,26.5,133.2,26.6z M132.6,27.4h0.6V31h-0.6V27.4z"/>
		<path class="st0" d="M136,30c0,0.6-0.4,1-1.1,1c-0.7,0-1.1-0.4-1.1-1v-1.7c0-0.6,0.4-1,1.1-1c0.7,0,1.1,0.4,1.1,1V30z M135.5,28.3
			c0-0.3-0.2-0.5-0.5-0.5c-0.4,0-0.5,0.2-0.5,0.5V30c0,0.3,0.2,0.5,0.5,0.5c0.4,0,0.5-0.2,0.5-0.5V28.3z"/>
		<path class="st0" d="M136.7,31v-3.6h0.6v0.4c0.1-0.1,0.3-0.4,0.7-0.4c0.5,0,0.8,0.3,0.8,0.9V31h-0.6v-2.7c0-0.3-0.2-0.5-0.5-0.5
			c-0.3,0-0.5,0.2-0.5,0.5V31H136.7z"/>
		<path class="st0" d="M142.4,27.2h-0.8V31h-0.6v-3.8h-0.8v-0.5h2.2V27.2z"/>
		<path class="st0" d="M143.3,29.3V30c0,0.3,0.2,0.5,0.5,0.5c0.4,0,0.5-0.2,0.5-0.5v-0.2h0.6V30c0,0.6-0.4,1-1.1,1
			c-0.7,0-1.1-0.4-1.1-1v-1.7c0-0.6,0.4-1,1.1-1c0.7,0,1.1,0.4,1.1,1v1h0v0H143.3z M144.4,28.3c0-0.3-0.2-0.5-0.5-0.5
			c-0.4,0-0.5,0.2-0.5,0.5v0.6h1V28.3z"/>
		<path class="st0" d="M147.2,30v-0.3h0.6V30c0,0.6-0.4,1-1.1,1c-0.7,0-1.1-0.4-1.1-1v-1.7c0-0.6,0.4-1,1.1-1c0.7,0,1.1,0.4,1.1,1
			v0.3h-0.6v-0.3c0-0.3-0.2-0.5-0.5-0.5c-0.4,0-0.5,0.2-0.5,0.5V30c0,0.3,0.1,0.5,0.5,0.5C147,30.5,147.2,30.3,147.2,30z"/>
		<path class="st0" d="M148.4,31v-4.6h0.6v1.3c0.1-0.1,0.3-0.4,0.7-0.4c0.5,0,0.8,0.3,0.8,0.9V31h-0.6v-2.7c0-0.3-0.2-0.5-0.5-0.5
			c-0.3,0-0.5,0.2-0.5,0.5V31H148.4z"/>
		<path class="st0" d="M151.3,31v-3.6h0.6v0.4c0.1-0.1,0.3-0.4,0.7-0.4c0.5,0,0.8,0.3,0.8,0.9V31h-0.6v-2.7c0-0.3-0.2-0.5-0.5-0.5
			c-0.3,0-0.5,0.2-0.5,0.5V31H151.3z"/>
		<path class="st0" d="M156.2,30c0,0.6-0.4,1-1.1,1c-0.7,0-1.1-0.4-1.1-1v-1.7c0-0.6,0.4-1,1.1-1c0.7,0,1.1,0.4,1.1,1V30z
			 M155.7,28.3c0-0.3-0.2-0.5-0.5-0.5c-0.4,0-0.5,0.2-0.5,0.5V30c0,0.3,0.2,0.5,0.5,0.5c0.4,0,0.5-0.2,0.5-0.5V28.3z"/>
		<path class="st0" d="M156.9,26.4h0.6V31h-0.6V26.4z"/>
		<path class="st0" d="M160.4,30c0,0.6-0.4,1-1.1,1c-0.7,0-1.1-0.4-1.1-1v-1.7c0-0.6,0.4-1,1.1-1c0.7,0,1.1,0.4,1.1,1V30z
			 M159.8,28.3c0-0.3-0.2-0.5-0.5-0.5c-0.4,0-0.5,0.2-0.5,0.5V30c0,0.3,0.2,0.5,0.5,0.5c0.4,0,0.5-0.2,0.5-0.5V28.3z"/>
		<path class="st0" d="M163.2,27.6c-0.1,0-0.2,0-0.3,0.1c0.1,0.2,0.2,0.4,0.2,0.6v0.5c0,0.6-0.3,0.9-1.1,0.9c-0.2,0-0.3,0.1-0.3,0.3
			c0,0.2,0.1,0.2,0.4,0.2h0.4c0.6,0,0.9,0.3,0.9,0.8v0.1c0,0.5-0.3,0.8-1.2,0.8h-0.2c-0.5,0-0.9-0.1-1-0.2v-0.6
			c0.2,0.2,0.6,0.3,1,0.3h0.2c0.5,0,0.7-0.1,0.7-0.4V31c0-0.2-0.1-0.3-0.4-0.3H162c-0.5,0-0.8-0.2-0.8-0.5v-0.1
			c0-0.2,0.1-0.4,0.3-0.4c-0.4-0.1-0.7-0.4-0.7-0.9v-0.5c0-0.6,0.3-0.9,1.1-0.9c0.3,0,0.5,0.1,0.7,0.2c0.1-0.3,0.3-0.4,0.6-0.4h0.1
			v0.5H163.2z M162.6,28.2c0-0.3-0.2-0.5-0.5-0.5c-0.4,0-0.5,0.2-0.5,0.5v0.5c0,0.3,0.2,0.5,0.5,0.5c0.4,0,0.5-0.2,0.5-0.5V28.2z"/>
		<path class="st0" d="M163.5,27.3h0.6l0.3,1.4c0.2,0.8,0.3,1.3,0.3,1.3s0.1-0.5,0.3-1.3l0.3-1.4h0.6l-0.9,3.7
			c-0.1,0.6-0.5,0.9-1.1,0.9h-0.2v-0.5h0.2c0.3,0,0.5-0.3,0.5-0.6c0-0.1,0-0.2,0-0.2L163.5,27.3z"/>
		<path class="st0" d="M168.2,29c0.1,0,0.1,0,0.2,0c0.4,0,0.5-0.2,0.5-0.5v-0.8c0-0.3-0.2-0.5-0.6-0.5h-0.5V31h-0.6v-4.3h1.1
			c0.8,0,1.1,0.4,1.1,1v0.8c0,0.6-0.3,1-1,1c-0.1,0-0.2,0-0.3,0V29z"/>
		<path class="st0" d="M170.7,28.9c0.2,0.9,0.3,1.5,0.3,1.5s0.1-0.6,0.3-1.5l0.3-1.6h0.6l-0.8,3.6h-0.8l-0.8-3.6h0.6L170.7,28.9z"/>
		<path class="st0" d="M172.2,27.3h0.4l0.1-0.7h0.4v0.7h0.7v0.5h-0.7v2.2c0,0.3,0.1,0.4,0.4,0.4c0.2,0,0.3-0.1,0.4-0.1v0.5
			c0,0-0.2,0.1-0.5,0.1c-0.6,0-0.9-0.4-0.9-0.9v-2.2h-0.4V27.3z"/>
		<path class="st0" d="M174.9,30.7c0,0.2-0.1,0.3-0.3,0.3c-0.3,0-0.3-0.1-0.3-0.3c0-0.2,0.1-0.3,0.3-0.3
			C174.8,30.3,174.9,30.5,174.9,30.7z"/>
		<path class="st0" d="M178.4,31h-1.8v-4.3h0.6v3.8h1.2V31z"/>
		<path class="st0" d="M178.5,27.3h0.4l0.1-0.7h0.4v0.7h0.7v0.5h-0.7v2.2c0,0.3,0.1,0.4,0.4,0.4c0.2,0,0.3-0.1,0.4-0.1v0.5
			c0,0-0.2,0.1-0.5,0.1c-0.6,0-0.9-0.4-0.9-0.9v-2.2h-0.4V27.3z"/>
		<path class="st0" d="M180.5,28.3c0-0.6,0.4-1,0.9-1c0.4,0,0.6,0.2,0.7,0.3v-1.3h0.6V31h-0.6v-0.3c-0.1,0.1-0.3,0.3-0.7,0.3
			c-0.6,0-0.9-0.4-0.9-0.9V28.3z M182.1,28.3c0-0.3-0.2-0.5-0.5-0.5c-0.3,0-0.5,0.2-0.5,0.5V30c0,0.3,0.2,0.5,0.5,0.5
			c0.3,0,0.5-0.2,0.5-0.5V28.3z"/>
		<path class="st0" d="M184,30.7c0,0.2-0.1,0.3-0.3,0.3c-0.3,0-0.3-0.1-0.3-0.3c0-0.2,0.1-0.3,0.3-0.3C183.9,30.3,184,30.5,184,30.7
			z"/>
	</g>
</g>
</svg>
